<svg xmlns="http://www.w3.org/2000/svg" xmlns:xlink="http://www.w3.org/1999/xlink" version="1.1" x="0px" y="0px" viewBox="0 0 80 100" enable-background="new 0 0 80 80" xml:space="preserve"><path fill="#000000" d="M61.974,41.227c-0.69,0-1.25-0.56-1.25-1.25s0.56-1.25,1.25-1.25h2.493  C63.823,26.221,53.759,16.163,41.25,15.531v2.465c0,0.69-0.56,1.25-1.25,1.25s-1.25-0.56-1.25-1.25v-2.465  C26.243,16.164,16.181,26.217,15.534,38.72h2.484c0.69,0,1.25,0.56,1.25,1.25s-0.56,1.25-1.25,1.25h-2.487  c0.617,12.528,10.688,22.612,23.213,23.249v-2.518c0-0.689,0.56-1.25,1.25-1.25s1.25,0.561,1.25,1.25v2.518  c12.526-0.629,22.604-10.713,23.225-23.242H61.974z M50.812,42H42.22c-0.55,0.609-1.337,1-2.22,1c-1.653,0-3-1.346-3-3  c0-0.883,0.391-1.67,1-2.219V25.998c0-1.104,0.896-2,2-2s2,0.896,2,2v11.783c0.077,0.068,0.149,0.142,0.22,0.219h8.593  c1.104,0,2,0.896,2,2S51.917,42,50.812,42z"/><text x="0" y="95" fill="#000000" font-size="5px" font-weight="bold" font-family="'Helvetica Neue', Helvetica, Arial-Unicode, Arial, Sans-serif">Created by Kokopako</text><text x="0" y="100" fill="#000000" font-size="5px" font-weight="bold" font-family="'Helvetica Neue', Helvetica, Arial-Unicode, Arial, Sans-serif">from the Noun Project</text></svg>