<svg xmlns="http://www.w3.org/2000/svg" xmlns:xlink="http://www.w3.org/1999/xlink" version="1.1" x="0px" y="0px" viewBox="0 0 100 125" enable-background="new 0 0 100 100" xml:space="preserve"><path d="M69.8,25.7l1.3-2.2l7.6,4.4c0.4,0.2,0.8,0.3,1.2,0.3c0.9,0,1.7-0.4,2.2-1.3c1.7-2.9,2.1-6.3,1.2-9.5  c-0.8-2.8-2.4-5.2-4.8-6.9l0.2-0.4c0.3-0.6,0.1-1.4-0.5-1.7c-0.6-0.3-1.4-0.1-1.7,0.5l-0.3,0.4c-1.6-0.7-3.4-1.1-5.1-1.1  c-4.5,0-8.6,2.4-10.8,6.3c-0.7,1.2-0.3,2.7,0.9,3.4l7.6,4.4l-1.3,2.2c-4.3-2.3-9.2-3.8-14.3-4.3l-0.6-3.3c2-1,3.4-3.1,3.4-5.6  C56.3,7.8,53.4,5,50,5s-6.3,2.8-6.3,6.3c0,2.4,1.4,4.5,3.4,5.6l-0.6,3.3c-5.1,0.5-10,1.9-14.3,4.3l-1.3-2.2l7.6-4.4  c1.2-0.7,1.6-2.2,0.9-3.4c-2.2-3.9-6.4-6.3-10.8-6.3c-1.8,0-3.5,0.4-5.1,1.1l-0.3-0.4c-0.3-0.6-1.1-0.8-1.7-0.5  c-0.6,0.3-0.8,1.1-0.5,1.7l0.2,0.4c-2.3,1.7-4,4.1-4.8,6.9c-0.9,3.2-0.4,6.6,1.2,9.5c0.5,0.8,1.3,1.3,2.2,1.3c0.4,0,0.9-0.1,1.2-0.3  l7.6-4.4l1.3,2.2c-10.6,6.6-17.7,18.4-17.7,31.8c0,13,6.6,24.4,16.6,31.1l-1.5,2.6c-0.7,1.2-0.3,2.7,0.9,3.4  c0.4,0.2,0.8,0.3,1.2,0.3c0.9,0,1.7-0.4,2.2-1.3l1.5-2.6c5,2.5,10.6,3.9,16.5,3.9s11.5-1.4,16.5-3.9l1.5,2.6  c0.5,0.8,1.3,1.3,2.2,1.3c0.4,0,0.9-0.1,1.2-0.3c1.2-0.7,1.6-2.2,0.9-3.4l-1.5-2.6c10-6.7,16.6-18.2,16.6-31.1  C87.5,44.1,80.4,32.3,69.8,25.7z M66.4,15c1.3-1.1,3.1-1.8,4.9-1.8c1.3,0,2.6,0.3,3.7,1c1.7,1,3,2.6,3.5,4.6  c0.3,1.1,0.3,2.2,0.1,3.3L66.4,15z M50,10c0.7,0,1.3,0.6,1.3,1.3s-0.6,1.3-1.3,1.3s-1.3-0.6-1.3-1.3S49.3,10,50,10z M50.8,20  c-0.3,0-0.5,0-0.8,0s-0.5,0-0.8,0l0.4-2.5c0.1,0,0.3,0,0.4,0s0.3,0,0.4,0L50.8,20z M21.4,22.1c-0.2-1.1-0.2-2.2,0.1-3.3  c0.5-1.9,1.8-3.6,3.5-4.6c1.1-0.7,2.4-1,3.7-1c1.8,0,3.5,0.7,4.9,1.8L21.4,22.1z M50,90c-17.9,0-32.5-14.6-32.5-32.5S32.1,25,50,25  s32.5,14.6,32.5,32.5S67.9,90,50,90z"/><path d="M50,31.3c0.7,0,1.3-0.6,1.3-1.3v-2.5c0-0.7-0.6-1.3-1.3-1.3s-1.3,0.6-1.3,1.3V30C48.8,30.7,49.3,31.3,50,31.3z"/><path d="M36.1,30.9c-0.3-0.6-1.1-0.8-1.7-0.5c-0.6,0.3-0.8,1.1-0.5,1.7l1.3,2.2c0.2,0.4,0.7,0.6,1.1,0.6c0.2,0,0.4-0.1,0.6-0.2  c0.6-0.3,0.8-1.1,0.5-1.7L36.1,30.9z"/><path d="M26.8,42.7l-2.2-1.3c-0.6-0.3-1.4-0.1-1.7,0.5c-0.3,0.6-0.1,1.4,0.5,1.7l2.2,1.3c0.2,0.1,0.4,0.2,0.6,0.2  c0.4,0,0.9-0.2,1.1-0.6C27.6,43.8,27.4,43,26.8,42.7z"/><path d="M23.8,57.5c0-0.7-0.6-1.3-1.3-1.3H20c-0.7,0-1.3,0.6-1.3,1.3s0.6,1.3,1.3,1.3h2.5C23.2,58.8,23.8,58.2,23.8,57.5z"/><path d="M25.6,70.2l-2.2,1.3c-0.6,0.3-0.8,1.1-0.5,1.7c0.2,0.4,0.7,0.6,1.1,0.6c0.2,0,0.4-0.1,0.6-0.2l2.2-1.3  c0.6-0.3,0.8-1.1,0.5-1.7C26.9,70,26.2,69.8,25.6,70.2z"/><path d="M36.9,80.2c-0.6-0.3-1.4-0.1-1.7,0.5l-1.3,2.2c-0.3,0.6-0.1,1.4,0.5,1.7c0.2,0.1,0.4,0.2,0.6,0.2c0.4,0,0.9-0.2,1.1-0.6  l1.3-2.2C37.7,81.3,37.5,80.6,36.9,80.2z"/><path d="M50,83.8c-0.7,0-1.3,0.6-1.3,1.3v2.5c0,0.7,0.6,1.3,1.3,1.3s1.3-0.6,1.3-1.3V85C51.3,84.3,50.7,83.8,50,83.8z"/><path d="M64.8,80.7c-0.3-0.6-1.1-0.8-1.7-0.5c-0.6,0.3-0.8,1.1-0.5,1.7l1.3,2.2c0.2,0.4,0.7,0.6,1.1,0.6c0.2,0,0.4-0.1,0.6-0.2  c0.6-0.3,0.8-1.1,0.5-1.7L64.8,80.7z"/><path d="M76.6,71.4l-2.2-1.3c-0.6-0.3-1.4-0.1-1.7,0.5c-0.3,0.6-0.1,1.4,0.5,1.7l2.2,1.3c0.2,0.1,0.4,0.2,0.6,0.2  c0.4,0,0.9-0.2,1.1-0.6C77.4,72.5,77.2,71.8,76.6,71.4z"/><path d="M76.3,57.5c0,0.7,0.6,1.3,1.3,1.3H80c0.7,0,1.3-0.6,1.3-1.3s-0.6-1.3-1.3-1.3h-2.5C76.8,56.3,76.3,56.8,76.3,57.5z"/><path d="M72.7,44.4c0.2,0.4,0.7,0.6,1.1,0.6c0.2,0,0.4-0.1,0.6-0.2l2.2-1.3c0.6-0.3,0.8-1.1,0.5-1.7c-0.3-0.6-1.1-0.8-1.7-0.5  l-2.2,1.3C72.6,43,72.4,43.8,72.7,44.4z"/><path d="M65.6,30.4c-0.6-0.3-1.4-0.1-1.7,0.5l-1.3,2.2c-0.3,0.6-0.1,1.4,0.5,1.7c0.2,0.1,0.4,0.2,0.6,0.2c0.4,0,0.9-0.2,1.1-0.6  l1.3-2.2C66.4,31.5,66.2,30.8,65.6,30.4z"/><path d="M59.4,41.3c-0.6-0.3-1.4-0.1-1.7,0.5l-6.4,11.1V37.5c0-0.7-0.6-1.3-1.3-1.3s-1.3,0.6-1.3,1.3V54c-1.5,0.5-2.5,1.9-2.5,3.5  c0,0.9,0.4,1.8,0.9,2.4l-0.7,1.3c-0.3,0.6-0.1,1.4,0.5,1.7c0.2,0.1,0.4,0.2,0.6,0.2c0.4,0,0.9-0.2,1.1-0.6l0.2-0.3v0.3  c0,0.7,0.6,1.3,1.3,1.3s1.3-0.6,1.3-1.3V61c1.5-0.5,2.5-1.9,2.5-3.5c0-0.9-0.4-1.8-0.9-2.4l7-12.1C60.2,42.4,60,41.6,59.4,41.3z   M50,58.8c-0.7,0-1.3-0.6-1.3-1.3s0.6-1.3,1.3-1.3s1.3,0.6,1.3,1.3S50.7,58.8,50,58.8z"/><text x="0" y="115" fill="#000000" font-size="5px" font-weight="bold" font-family="'Helvetica Neue', Helvetica, Arial-Unicode, Arial, Sans-serif">Created by Arthur Shlain</text><text x="0" y="120" fill="#000000" font-size="5px" font-weight="bold" font-family="'Helvetica Neue', Helvetica, Arial-Unicode, Arial, Sans-serif">from the Noun Project</text></svg>