<svg xmlns="http://www.w3.org/2000/svg" xmlns:xlink="http://www.w3.org/1999/xlink" version="1.1" x="0px" y="0px" viewBox="0 0 100 125" enable-background="new 0 0 100 100" xml:space="preserve"><path d="M90.314,80.489H67.536c-0.845,0-1.575,0.458-1.978,1.135c-0.626-0.919-1.68-1.525-2.874-1.525H60.96  c-1.338,0-2.487,0.769-3.069,1.879c-0.581-1.11-1.73-1.879-3.067-1.879H53.1c-1.339,0-2.489,0.769-3.07,1.88  c-0.581-1.111-1.731-1.88-3.07-1.88h-1.724c-1.337,0-2.488,0.769-3.069,1.879c-0.581-1.11-1.731-1.879-3.069-1.879h-1.724  c-1.163,0-2.187,0.579-2.819,1.458c-0.41-0.641-1.124-1.067-1.941-1.067H9.836c-1.274,0-2.307,1.032-2.307,2.307v1.561  c0,1.273,1.033,2.307,2.307,2.307h22.778c0.817,0,1.531-0.428,1.941-1.068c0.631,0.879,1.656,1.458,2.819,1.458h1.724  c1.337,0,2.488-0.768,3.069-1.878c0.581,1.11,1.731,1.878,3.069,1.878h1.724c1.338,0,2.489-0.768,3.07-1.879  c0.581,1.111,1.731,1.879,3.07,1.879h1.724c1.337,0,2.486-0.768,3.067-1.878c0.582,1.11,1.731,1.878,3.069,1.878h1.725  c1.194,0,2.248-0.605,2.875-1.525c0.401,0.677,1.132,1.136,1.977,1.136h22.778c1.274,0,2.307-1.033,2.307-2.307v-1.561  C92.621,81.521,91.589,80.489,90.314,80.489z M39.098,84.713h-1.724c-0.627,0-1.138-0.51-1.138-1.137  c0-0.628,0.51-1.138,1.138-1.138h1.724c0.627,0,1.138,0.51,1.138,1.138C40.236,84.203,39.726,84.713,39.098,84.713z M46.959,84.713  h-1.724c-0.627,0-1.138-0.51-1.138-1.137c0-0.628,0.51-1.138,1.138-1.138h1.724c0.627,0,1.138,0.51,1.138,1.138  C48.098,84.203,47.587,84.713,46.959,84.713z M54.823,84.713H53.1c-0.628,0-1.139-0.51-1.139-1.137c0-0.628,0.511-1.138,1.139-1.138  h1.724c0.626,0,1.136,0.51,1.136,1.138C55.959,84.203,55.449,84.713,54.823,84.713z M62.685,84.713H60.96  c-0.627,0-1.137-0.51-1.137-1.137c0-0.628,0.51-1.138,1.137-1.138h1.725c0.627,0,1.137,0.51,1.137,1.138  C63.821,84.203,63.312,84.713,62.685,84.713z M9.842,78.574h22.807v-8.445c7.859,0,11.111-6.37,11.111-14.229V40.109  c0,0,0.084-3.118-3.249-3.118c-3.25,0-3.25,3.378-3.25,3.378v8.577c0,0-0.129,2.598-3.509,2.598v-31.15c0,0-0.24-2.248-2.905-2.248  c-2.664,0-2.812,2.248-2.812,2.248v22.184c0,0-0.065,0.975-0.975,0.975s-0.975-0.975-0.975-0.975V15.716  c0,0,0.064-2.248-2.942-2.248c-2.665,0-2.775,2.248-2.775,2.248v26.862c0,0-0.065,0.975-0.91,0.975  c-0.845,0-0.975-0.975-0.975-0.975V20.394c0,0,0.064-2.248-2.937-2.248c-2.665,0-2.78,2.248-2.78,2.248v22.184  c0,0-0.066,0.975-0.911,0.975c-0.845,0-0.973-0.975-0.973-0.975V26.632c0,0-0.079-2.249-2.744-2.249  c-2.975,0-2.975,2.249-2.975,2.249v34.66c0,5.588,1.689,8.837,4.679,8.837V78.574z M39.016,40.725  c0.64,0.563,2.334,0.666,3.128-0.005l0.504,0.595c-0.532,0.451-1.295,0.65-2.044,0.65c-0.824,0-1.633-0.241-2.103-0.655  L39.016,40.725z M29.656,21.552c0.245,0.265,0.697,0.432,1.182,0.437c0.474-0.01,0.933-0.157,1.207-0.442l0.562,0.54  c-0.417,0.434-1.053,0.682-1.749,0.682c-0.009,0-0.019,0-0.028,0c-0.703-0.006-1.355-0.263-1.747-0.687L29.656,21.552z   M21.951,17.087c0.245,0.265,0.698,0.432,1.182,0.437c0.495-0.001,0.933-0.157,1.208-0.442l0.562,0.54  c-0.417,0.434-1.054,0.682-1.75,0.682h-0.028c-0.703-0.007-1.355-0.264-1.747-0.688L21.951,17.087z M14.354,21.552  c0.245,0.265,0.697,0.432,1.181,0.437c0.492,0.005,0.933-0.156,1.207-0.442l0.562,0.54c-0.417,0.434-1.053,0.682-1.749,0.682  c-0.009,0-0.019,0-0.028,0c-0.703-0.006-1.355-0.263-1.746-0.687L14.354,21.552z M8.149,29.006c-0.009,0-0.019,0-0.028,0  c-0.703-0.007-1.355-0.264-1.747-0.688l0.573-0.528c0.244,0.265,0.697,0.432,1.181,0.437c0.492,0.029,0.933-0.156,1.208-0.442  l0.562,0.54C9.481,28.758,8.845,29.006,8.149,29.006z M91.86,24.384c-2.665,0-2.743,2.249-2.743,2.249v15.946  c0,0-0.128,0.975-0.973,0.975c-0.846,0-0.909-0.975-0.909-0.975V20.394c0,0-0.116-2.248-2.779-2.248  c-3.004,0-2.939,2.248-2.939,2.248v22.184c0,0-0.131,0.975-0.974,0.975c-0.847,0-0.911-0.975-0.911-0.975V15.716  c0,0-0.109-2.249-2.774-2.249c-3.006,0-2.942,2.249-2.942,2.249v26.862c0,0-0.065,0.975-0.975,0.975s-0.975-0.975-0.975-0.975  V20.394c0,0-0.148-2.248-2.814-2.248c-2.663,0-2.905,2.248-2.905,2.248v31.15c-3.38,0-3.508-2.598-3.508-2.598v-8.577  c0,0,0-3.378-3.251-3.378c-3.332,0-3.247,3.118-3.247,3.118V55.9c0,7.858,3.251,14.229,11.11,14.229v8.445h22.808v-8.445  c2.988,0,4.678-3.249,4.678-8.837v-34.66C94.836,26.632,94.836,24.384,91.86,24.384z M59.397,41.965c-0.75,0-1.513-0.2-2.045-0.651  l0.504-0.595c0.791,0.67,2.487,0.57,3.128,0.005L61.5,41.31C61.03,41.724,60.222,41.965,59.397,41.965z M69.17,22.769  c-0.01,0-0.02,0-0.028,0c-0.696,0-1.332-0.248-1.749-0.683l0.562-0.54c0.271,0.282,0.702,0.443,1.186,0.443c0.008,0,0.015,0,0.021,0  c0.483-0.004,0.936-0.172,1.181-0.437l0.572,0.528C70.524,22.504,69.872,22.762,69.17,22.769z M76.873,18.304h-0.027  c-0.695,0-1.332-0.248-1.748-0.682l0.562-0.54c0.271,0.282,0.701,0.442,1.186,0.442h0.02c0.485-0.004,0.938-0.172,1.184-0.437  l0.572,0.529C78.229,18.04,77.575,18.297,76.873,18.304z M84.472,22.769c-0.01,0-0.02,0-0.028,0c-0.696,0-1.333-0.248-1.75-0.683  l0.562-0.54c0.271,0.282,0.702,0.443,1.187,0.443c0.008,0,0.015,0,0.021,0c0.484-0.004,0.937-0.172,1.182-0.437l0.572,0.528  C85.827,22.504,85.174,22.762,84.472,22.769z M91.879,29.006h-0.028c-0.696,0-1.333-0.249-1.749-0.684l0.562-0.539  c0.274,0.286,0.717,0.441,1.207,0.443c0.485-0.005,0.938-0.172,1.182-0.438l0.574,0.528C93.235,28.742,92.582,29,91.879,29.006z"/><text x="0" y="115" fill="#000000" font-size="5px" font-weight="bold" font-family="'Helvetica Neue', Helvetica, Arial-Unicode, Arial, Sans-serif">Created by Gilad Fried</text><text x="0" y="120" fill="#000000" font-size="5px" font-weight="bold" font-family="'Helvetica Neue', Helvetica, Arial-Unicode, Arial, Sans-serif">from the Noun Project</text></svg>