<svg xmlns="http://www.w3.org/2000/svg" xmlns:xlink="http://www.w3.org/1999/xlink" id="false" viewBox="0 0 100 100" style="background-color:#ffffff00;" version="1.1" xml:space="preserve" x="0px" y="0px"><g><path d="M 20.7798 85 L 30.3101 75.2002 C 33.2202 76.5898 36.1499 77.5898 38.98 78.2598 C 41.5601 78.8901 44.1401 79.2002 46.7202 79.46 L 52.1201 79.5098 C 55.46 79.3101 58.79 78.8398 62.1299 78 C 64.25 77.4302 66.4702 76.7002 68.6001 75.8101 C 75.1099 73.1602 83.3501 67.0601 88.2002 59.3999 C 88.9702 58.1899 91.3599 54.25 92.3101 51.5098 C 92.5898 51.0498 92.75 50.4902 92.75 49.8799 C 92.75 49.3599 92.6499 48.73 92.3999 48.1602 C 90.8799 44.9199 88.8501 41.6802 86.48 38.5 C 84.2002 35.5801 80.6602 31.8701 77.77 29.6802 C 77.1499 29.2002 76.54 28.7402 75.9199 28.2998 L 84.3999 19.5801 C 87.3599 16.54 82.9399 11.96 79.98 15 L 70.2998 24.9502 C 67.1899 23.3999 64.0601 22.3101 61.0298 21.5898 C 58.4502 20.96 55.8701 20.6499 53.29 20.3901 L 47.8799 20.3398 C 44.54 20.54 41.2002 21.0098 37.8599 21.8501 C 35.73 22.4199 33.5098 23.1499 31.3799 24.04 C 24.8599 26.7002 16.6099 32.8101 11.75 40.48 C 10.79 42 7.25 47.8398 7.25 50.1899 C 7.25 50.8999 7.46 51.6201 7.8701 52.1802 C 9.3599 55.2598 11.2998 58.3398 13.5698 61.3799 C 15.8398 64.2998 19.3799 68 22.2598 70.1899 C 23.0498 70.79 23.8501 71.3799 24.6299 71.9199 L 16.3599 80.4199 C 13.3999 83.46 17.8198 88.04 20.7798 85 ZM 34.7202 70.6699 L 39.7002 65.54 C 42.6099 67.7202 46.1699 69 50 69 C 59.8799 69 67.8999 60.4902 67.8999 50 C 67.8999 46.1499 66.8198 42.5601 64.96 39.5698 L 71.7402 32.5898 C 74.1099 34.1499 76.48 36.0898 78.6299 38.3398 C 82.21 42.0898 84.8701 46.04 86.73 49.79 C 86.5498 50.2798 86.3599 50.7798 86.1299 51.2202 C 85.52 52.3101 84.9702 53.5601 84.2598 54.71 C 82.6401 57.3599 80.52 60.1802 77.79 62.79 C 75.3701 65.0801 72.6899 67.0098 70.3101 68.3599 C 64.2002 71.7998 58.1899 73.1602 52.0698 73.5698 L 47.8301 73.5698 C 46.8701 73.5698 42.3701 72.8999 42.3198 72.8999 C 41.8101 72.8398 41.3101 72.6899 40.7998 72.5801 C 38.7798 72.1401 36.7402 71.5 34.7202 70.6699 ZM 43.8701 61.2598 L 60.75 43.8999 C 61.4502 45.6201 61.8101 47.6699 61.8101 50 C 61.8101 58.0098 57.54 62.5898 50 62.5898 C 47.6201 62.5898 45.5601 62.1401 43.8701 61.2598 ZM 65.9199 29.46 L 60.73 34.79 C 57.7402 32.4102 54.0298 31 50 31 C 40.1201 31 32.1001 39.5098 32.1001 50 C 32.1001 54.0601 33.2998 57.8101 35.3398 60.8999 L 28.7998 67.6201 C 26.2598 66 23.71 63.9502 21.3999 61.5298 C 17.79 57.7598 15.1299 53.7798 13.2598 50.0098 C 13.4302 49.54 13.6099 49.0898 13.8301 48.6802 C 14.4302 47.5801 14.9902 46.3301 15.7002 45.1802 C 17.3198 42.52 19.4399 39.7002 22.1699 37.0898 C 24.6001 34.79 27.2798 32.8599 29.6602 31.5098 C 35.7798 28.0601 41.7998 26.7002 47.9302 26.29 L 52.1802 26.29 C 53.1401 26.29 57.6401 26.96 57.6899 26.96 C 58.2002 27.02 58.7002 27.1699 59.21 27.2798 C 61.4399 27.7598 63.7002 28.5 65.9199 29.46 ZM 56.6201 39.02 L 39.48 56.6401 C 38.6299 54.8101 38.1899 52.5801 38.1899 50 C 38.1899 41.9902 42.46 37.4102 50 37.4102 C 52.6201 37.4102 54.8301 37.9702 56.6201 39.02 Z" fill="#000000"></path><path d="M 8.6401 50.4702 C 13.6299 60.4502 19.3301 66.8999 24.9302 71.0601 L 16.6201 79.3799 C 15.4502 80.5498 15.3999 82.3999 16.5 83.5 C 17.6001 84.6001 19.4502 84.5498 20.6201 83.3799 L 29.8198 74.1699 C 38.46 78.8101 46.25 78.6699 50 78.6699 C 56.8101 78.6699 77.0298 79.1401 91.3599 50.4702 C 86.2598 40.2598 80.4102 33.6299 74.6802 29.3101 L 83.3799 20.6201 C 84.5498 19.4502 84.6001 17.6001 83.5 16.5 C 82.3999 15.3999 80.5498 15.4502 79.3799 16.6201 L 69.8301 26.1602 C 61.3301 21.4702 53.7002 21.3301 50 21.3301 C 43.1899 21.3301 22.98 21.7998 8.6401 50.4702 ZM 14.9102 50.3799 C 26.3799 27.4399 44.5498 27.0601 50 27.0601 C 52.7798 27.0601 58.8701 27.1602 65.6899 30.2998 L 59.8501 36.1499 C 57.0801 34.1602 53.6699 33 50 33 C 40.6099 33 33 40.6099 33 50 C 33 53.6699 34.1602 57.0801 36.1499 59.8501 L 28.8901 67.1099 C 23.96 63.79 19.0098 58.5698 14.9102 50.3799 ZM 70.7998 33.2002 C 75.8301 36.6401 80.8999 42.0098 85.0898 50.3799 C 73.6201 73.3101 55.4502 72.9399 50 72.9399 C 47.1802 72.9399 40.9702 73.04 34.0298 69.96 L 40.1499 63.8501 C 42.9199 65.8398 46.3301 67 50 67 C 59.3901 67 67 59.3901 67 50 C 67 46.3301 65.8398 42.9199 63.8501 40.1499 L 70.7998 33.2002 ZM 56.0098 39.9902 L 39.9902 56.0098 C 38.9302 54.25 38.3198 52.2002 38.3198 50 C 38.3198 43.5498 43.5498 38.3198 50 38.3198 C 52.2002 38.3198 54.25 38.9302 56.0098 39.9902 ZM 43.9902 60.0098 L 60.0098 43.9902 C 61.0698 45.75 61.6802 47.7998 61.6802 50 C 61.6802 56.4502 56.4502 61.6802 50 61.6802 C 47.7998 61.6802 45.75 61.0698 43.9902 60.0098 Z" fill="#000000"></path></g></svg>